<?xml version="1.0" encoding="UTF-8" standalone="no"?>
<!-- Created with Inkscape (http://www.inkscape.org/) -->

<svg
   xmlns:dc="http://purl.org/dc/elements/1.1/"
   xmlns:cc="http://creativecommons.org/ns#"
   xmlns:rdf="http://www.w3.org/1999/02/22-rdf-syntax-ns#"
   xmlns:svg="http://www.w3.org/2000/svg"
   xmlns="http://www.w3.org/2000/svg"
   xmlns:sodipodi="http://sodipodi.sourceforge.net/DTD/sodipodi-0.dtd"
   xmlns:inkscape="http://www.inkscape.org/namespaces/inkscape"
   id="svg2"
   version="1.1"
   inkscape:version="0.48.4 r9939"
   width="16"
   height="16"
   sodipodi:docname="favicon.ico">
  <metadata
     id="metadata8">
    <rdf:RDF>
      <cc:Work
         rdf:about="">
        <dc:format>image/svg+xml</dc:format>
        <dc:type
           rdf:resource="http://purl.org/dc/dcmitype/StillImage" />
        <dc:title></dc:title>
      </cc:Work>
    </rdf:RDF>
  </metadata>
  <defs
     id="defs6">
    <filter
       inkscape:collect="always"
       id="filter4011">
      <feGaussianBlur
         inkscape:collect="always"
         stdDeviation="0.33164303"
         id="feGaussianBlur4013" />
    </filter>
  </defs>
  <sodipodi:namedview
     pagecolor="#ffffff"
     bordercolor="#666666"
     borderopacity="1"
     objecttolerance="10"
     gridtolerance="10"
     guidetolerance="10"
     inkscape:pageopacity="0"
     inkscape:pageshadow="2"
     inkscape:window-width="1366"
     inkscape:window-height="722"
     id="namedview4"
     showgrid="false"
     inkscape:zoom="29.5"
     inkscape:cx="4.9523589"
     inkscape:cy="7.8990315"
     inkscape:window-x="0"
     inkscape:window-y="22"
     inkscape:window-maximized="1"
     inkscape:current-layer="svg2" />
  <path
     style="fill:#ffa500;fill-opacity:1;fill-rule:nonzero;stroke:#ffffff;stroke-width:0.87800002;stroke-linecap:round;stroke-linejoin:round;stroke-miterlimit:4;stroke-opacity:1;stroke-dasharray:none"
     id="path3759"
     d="m 2.5328315,6.2423483 c 0.2166866,0.4127159 0.4682035,0.8071492 0.708742,1.2064061 0.3867206,0.6649691 0.8237893,1.2980805 1.2502558,1.9376336 0.2031448,0.3136536 0.4140104,0.623474 0.5891976,0.954142 0.09034,0.170517 0.1026439,0.206726 0.1790191,0.380204 0.1226415,0.301359 0.1959978,0.618652 0.2806875,0.931832 0.044533,0.157593 0.090021,0.314795 0.1318806,0.473121 0.03271,0.109193 0.055554,0.222355 0.1056438,0.325529 0.036566,0.07532 0.058454,0.102892 0.1050807,0.172849 0.1213921,0.162712 0.2477616,0.321759 0.3621924,0.48952 0.041066,0.04897 0.099093,0.173328 0.1684255,0.190987 0.041832,0.01065 0.092243,-0.02272 0.1243209,-0.03741 -0.099226,0.05357 -0.1893862,0.129271 -0.2976793,0.160704 -0.058629,0.01702 0.096962,-0.07444 0.1420973,-0.115545 0.054426,-0.04957 0.1058194,-0.102447 0.1562005,-0.15612 C 6.7287885,12.953899 6.8949648,12.733624 7.061492,12.512248 7.4647334,11.980964 7.8021973,11.405626 8.1260299,10.823882 8.3301165,10.449888 8.5046324,10.060059 8.6461527,9.6581758 8.735818,9.4035482 8.753554,9.3281656 8.8291172,9.0671042 9.0339707,8.3117229 9.1570273,7.5381237 9.2997254,6.7695588 9.4272566,6.0998113 9.5450507,5.4275977 9.7138406,4.7665631 9.8373979,4.2826737 9.8787526,4.1724742 10.028096,3.6940577 c 0.205959,-0.6328426 0.437326,-1.2567513 0.678718,-1.8767679 0,0 0.353846,-0.1635091 0.353846,-0.1635091 l 0,0 C 10.801117,2.2746586 10.55765,2.9020568 10.349486,3.5423337 10.19717,4.0333245 10.164914,4.112892 10.040788,4.6093312 9.8764225,5.266703 9.7630206,5.9349053 9.6443214,6.601557 9.5142793,7.365393 9.4051806,8.1344684 9.2111274,8.8856135 9.1382303,9.1464432 9.1210203,9.2246691 9.0317181,9.4788561 8.8892128,9.8844788 8.7098151,10.2765 8.5051989,10.654374 c -0.3229762,0.578991 -0.6536598,1.155638 -1.0504407,1.688179 -0.1605827,0.219098 -0.321089,0.437002 -0.5009913,0.640921 -0.044571,0.05052 -0.2065477,0.229392 -0.2737434,0.273087 -0.1699753,0.110532 -0.3497077,0.20528 -0.5245615,0.307919 -0.030728,0.0071 -0.060657,0.02042 -0.092183,0.02131 C 5.9438653,13.589168 5.8850002,13.436077 5.828043,13.358261 5.7169957,13.188282 5.5911572,13.029144 5.4694091,12.866784 5.4243916,12.800134 5.3938234,12.759369 5.3573201,12.687676 5.304448,12.583834 5.2788349,12.469401 5.2428647,12.359301 5.1980044,12.200363 5.1632628,12.038714 5.1237799,11.878392 5.0472182,11.563891 4.9865398,11.244176 4.8648287,10.942711 4.6674727,10.469878 4.4159246,10.023508 4.1368555,9.5940243 3.7202661,8.9475951 3.2882768,8.3111627 2.8866766,7.6551183 2.6335117,7.2572966 2.3765249,6.8618096 2.0935573,6.4842757 c 0,0 0.4392742,-0.2419274 0.4392742,-0.2419274 z"
     inkscape:connector-curvature="0" />
  <path
     style="fill:#ffa500;fill-opacity:1;fill-rule:nonzero;stroke:#ffffff;stroke-width:0.87800002;stroke-linecap:round;stroke-linejoin:round;stroke-miterlimit:4;stroke-opacity:1;stroke-dasharray:none"
     id="path3761"
     d="m 1.7930392,6.770832 c 0.5363248,0.532258 1.0689205,1.0680312 1.5954742,1.6100148 0.699647,0.7439323 1.4247822,1.4656458 2.0902177,2.2411182 0.11284,0.131499 0.2212986,0.266696 0.3319479,0.400044 0.4143775,0.501079 0.7572468,1.05314 1.0948662,1.606863 0.1014972,0.176789 0.2157214,0.344917 0.338641,0.507257 0.093445,0.125366 0.1825699,0.253601 0.2664124,0.385547 0.00127,0.0017 0.03806,0.06275 0.05838,0.06024 0.00794,-9.78e-4 0.018385,-0.02479 0.011247,-0.02119 -0.1399981,0.07064 -0.2704105,0.160213 -0.4135738,0.224197 -0.01532,0.0068 0.01377,-0.03084 0.017526,-0.04719 0.00657,-0.02859 0.00886,-0.058 0.013296,-0.087 0.045881,-0.491484 0.2355773,-0.957804 0.401406,-1.417876 0.2595045,-0.719966 0.2896629,-0.787336 0.5758836,-1.536033 0.7187418,-1.8264355 1.6802968,-3.5438567 2.7731287,-5.1710777 0.249452,-0.3714333 0.512719,-0.7334 0.769078,-1.1000999 1.108955,-1.5392729 2.29086,-3.0240135 3.509613,-4.47729211 0,0 0.329721,-0.1392073 0.329721,-0.1392073 l 0,0 C 14.241023,1.2623587 12.993889,2.7771582 11.84834,4.3685097 11.59296,4.7345681 11.329633,5.0952088 11.082199,5.466685 10.014194,7.0700985 9.0915076,8.7737201 8.4207048,10.582216 8.1814074,11.264306 8.1182743,11.42244 7.9129664,12.08503 7.7777398,12.521447 7.6262489,12.97205 7.631091,13.434629 c -7.776e-4,0.02947 -7.719e-4,0.05898 -0.00233,0.08842 -0.00104,0.01966 0.010278,0.04699 -0.00547,0.0588 C 7.3179547,13.810736 7.2374218,14.000206 7.0861289,13.768365 7.0067641,13.635444 6.9210099,13.506681 6.8262075,13.384123 6.7037596,13.218629 6.593499,13.045722 6.5069951,12.858169 6.4453911,12.736703 6.3865581,12.6138 6.3225236,12.493597 6.0830118,12.043996 5.8045993,11.61548 5.4955388,11.210637 5.3886044,11.075558 5.2844406,10.938239 5.1747355,10.805401 4.5251061,10.018785 3.8066433,9.2912372 3.0976175,8.5590793 2.546821,8.0223463 1.9930804,7.4812756 1.3661531,7.0324281 c 0,0 0.4268861,-0.2615961 0.4268861,-0.2615961 z"
     inkscape:connector-curvature="0" />
  <path
     style="fill:#ffa500;fill-opacity:1;fill-rule:nonzero;stroke:#ffffff;stroke-width:0.87800002;stroke-linecap:round;stroke-linejoin:round;stroke-miterlimit:4;stroke-opacity:1;stroke-dasharray:none"
     id="path3763"
     d="m 3.6256914,7.1432449 c 0.2626842,0.7021728 0.5790582,1.3821305 0.9022982,2.0579465 0.4085594,0.8423036 0.8765596,1.6548886 1.3915208,2.4364816 0.2651369,0.402417 0.39055,0.569748 0.6637849,0.950381 0.1604618,0.212568 0.3113905,0.418146 0.480343,0.623041 0.053236,0.06456 0.1036156,0.132311 0.1649357,0.189249 0.039368,0.03655 0.081436,0.08043 0.1345035,0.08879 0.040057,0.0063 0.1513848,-0.04893 0.1108508,-0.05012 -0.089508,-0.0026 -0.1764974,0.03039 -0.264746,0.04558 0.061804,-0.122743 0.1263864,-0.244126 0.185412,-0.368229 0.087291,-0.183531 0.1689744,-0.369676 0.2534615,-0.554514 0.1134825,-0.243701 0.2249219,-0.488363 0.3404476,-0.731102 0.4751079,-0.99828 0.9774504,-1.9830102 1.4773499,-2.9689908 0.8266717,-1.6336998 1.7336487,-3.2248076 2.5782777,-4.848971 0,0 0.326143,-0.145962 0.326143,-0.145962 l 0,0 C 11.425385,5.4885565 10.468268,7.1047802 9.6320614,8.7865555 9.1568721,9.7530278 8.6818753,10.718503 8.2560364,11.708112 8.0007131,12.30146 7.9739712,12.395272 7.7586039,12.949868 7.712405,13.068835 7.6651343,13.187384 7.6183996,13.306142 7.4444126,13.446631 7.2827509,13.60393 7.0964387,13.727608 6.9905097,13.797925 6.9049774,13.691274 6.8502978,13.625949 6.7970029,13.562279 6.7539812,13.490663 6.7069136,13.422261 6.5673793,13.219479 6.4048443,12.97319 6.2707649,12.771717 5.5476804,11.664511 4.8409079,10.544986 4.2330127,9.3692021 3.8858663,8.708893 3.55356,8.0404677 3.1945179,7.3866391 c 0,0 0.4311735,-0.2433942 0.4311735,-0.2433942 z"
     inkscape:connector-curvature="0" />
  <path
     style="fill:#ffa500;fill-opacity:1;fill-rule:nonzero;stroke:#ffffff;stroke-width:0.87800002;stroke-linecap:round;stroke-linejoin:round;stroke-miterlimit:4;stroke-opacity:1;stroke-dasharray:none"
     id="path3765"
     d="m 2.2948185,7.8905597 c 0.089883,0.1975402 0.1896332,0.3905734 0.2892175,0.5833714 0.1221842,0.2408392 0.2523916,0.4774532 0.3813385,0.7146995 0.077599,0.141631 0.1520918,0.2848873 0.2249794,0.4289863 0.095463,0.187699 0.1928393,0.3744287 0.2923552,0.5600101 0.1168593,0.218277 0.2367434,0.434899 0.359178,0.650091 0.1188194,0.207334 0.2413597,0.4125 0.3653327,0.616784 0.1074842,0.180518 0.2180002,0.35913 0.3312914,0.536052 0.043986,0.06972 0.088483,0.139117 0.1330448,0.20847 0.013346,0.02077 0.021488,0.04603 0.04007,0.06229 0.018125,0.01586 0.1260018,0.0485 0.1418612,0.05372 0.074318,-0.03016 0.110632,0.08879 0.1734977,0.07927 0.1043347,-0.0158 0.1970024,-0.07576 0.2946398,-0.115785 0.4041455,-0.165692 0.8013023,-0.347203 1.1995709,-0.526352 0.334617,-0.135454 0.6738109,-0.325452 1.0442251,-0.329981 0.01264,-8.14e-4 0.027154,-0.0091 0.03792,-0.0024 0.069825,0.04328 0.1270894,0.104945 0.197018,0.148056 0.012294,0.0076 0.056699,-0.0053 0.043328,1.15e-4 -0.1610987,0.06577 -0.3154828,0.173512 -0.4892858,0.181959 -0.058276,0.0028 -0.059942,-0.100518 -0.082916,-0.154149 -0.027827,-0.06496 -0.045993,-0.133645 -0.06899,-0.200467 C 7.095412,10.892302 7.2235959,10.408757 7.3818844,9.9431275 7.5353196,9.5290958 7.739726,9.1368249 7.9399115,8.7441079 8.1624865,8.3062181 8.3919321,7.8718786 8.6232091,7.4385384 8.9373803,6.8543966 9.2533989,6.2712524 9.5636001,5.6849868 9.7363995,5.3617302 9.9011642,5.0343051 10.068815,4.7083817 c 0.08534,-0.1642629 0.173077,-0.3272616 0.259595,-0.4909042 0.06278,-0.1175554 0.121552,-0.2371749 0.182541,-0.3556522 0.02301,-0.045255 0.04605,-0.090495 0.0691,-0.1357311 0,0 0.455175,-0.2051678 0.455175,-0.2051678 l 0,0 c -0.02413,0.045903 -0.04832,0.091775 -0.07273,0.1375292 -0.06375,0.1207367 -0.130321,0.2399651 -0.193633,0.3609396 C 10.681945,4.183949 10.595855,4.3489651 10.506108,4.5120025 10.320727,4.8455743 10.130632,5.1765287 9.9488176,5.5120857 9.6319694,6.091782 9.320499,6.6744126 9.0171253,7.2612875 8.7931442,7.6938014 8.5699576,8.1267243 8.3475289,8.5600386 8.1481756,8.9523697 7.9457342,9.3443834 7.7848995,9.7545419 7.6223882,10.208621 7.4847993,10.682314 7.5979031,11.165962 c 0.024434,0.0626 0.042564,0.12805 0.073302,0.187811 0.025247,0.04909 0.1198466,0.08808 0.093571,0.136628 -0.076502,0.141335 -0.229874,0.224726 -0.3480937,0.333594 -0.00708,0.0065 0.021961,-0.02083 0.013548,-0.02551 -0.1710539,-0.09524 -0.1563384,-0.09085 -0.2625312,-0.09705 -0.3384933,-0.0013 -0.6517717,0.170186 -0.9592177,0.288542 -0.5007253,0.219683 -0.2411339,0.105205 -0.7786719,0.343665 -0.1621957,0.07126 -0.6078251,0.279032 -0.8046178,0.312708 -0.061368,0.0105 -0.1058737,-0.09139 -0.1732811,-0.06972 -0.055521,-0.02049 -0.1174679,-0.03683 -0.1621516,-0.07944 -0.01788,-0.01705 -0.026176,-0.04191 -0.039221,-0.06289 -0.04356,-0.07006 -0.086782,-0.140338 -0.130038,-0.210591 C 4.0118777,12.043648 3.9018123,11.864472 3.7929228,11.684575 3.6712206,11.478551 3.5505074,11.271946 3.4322186,11.06394 3.3092556,10.848636 3.1862607,10.633315 3.0684876,10.41511 2.9685035,10.229652 2.8684194,10.044255 2.7694847,9.8582357 2.6928392,9.7159944 2.6183097,9.5726642 2.5473248,9.4274979 2.4274811,9.1854029 2.30855,8.9427669 2.1796366,8.7053142 2.0773488,8.5146804 1.9747927,8.323587 1.858132,8.141267 c 0,0 0.4366865,-0.2507073 0.4366865,-0.2507073 z"
     inkscape:connector-curvature="0" />
  <path
     sodipodi:type="spiral"
     style="fill:none;stroke:#ffa500;stroke-width:1px;stroke-linecap:round;stroke-linejoin:round;stroke-opacity:1"
     id="path3767"
     sodipodi:cx="7.3898306"
     sodipodi:cy="7.3220339"
     sodipodi:expansion="1"
     sodipodi:revolution="3"
     sodipodi:radius="6.3531065"
     sodipodi:argument="-20.297321"
     sodipodi:t0="0"
     d="M 7.3898306,7.3220339 C 7.4289214,7.005907 7.8352494,7.2187617 7.9152543,7.3870054 8.1320627,7.8429355 7.6829968,8.2936403 7.2598876,8.3728814 6.5030444,8.5146251 5.8750449,7.8396904 5.8135594,7.1271193 5.7233268,6.0813927 6.6498682,5.255148 7.6497167,5.2203389 8.9823574,5.1739439 10.012303,6.3602922 10.016949,7.6468915 10.022797,9.2659454 8.5731613,10.501831 7.0000015,10.474576 5.0946942,10.441567 3.6517129,8.7268585 3.7118644,6.8672333 3.7827509,4.6757292 5.7635692,3.0249729 7.9096027,3.118644 10.387283,3.226791 12.246251,5.4743741 12.118644,7.9067775 11.97365,10.670629 9.4588613,12.738104 6.7401154,12.576271 3.6900934,12.394719 1.4138979,9.612415 1.6101695,6.6073472 1.8280681,3.2711523 4.8781148,0.78607996 8.1694888,1.016949"
     transform="matrix(1.2640081,0,0,1.2640081,-0.75678894,-0.57323213)" />
  <path
     sodipodi:type="spiral"
     style="fill:none;stroke:#cd0500;stroke-width:0.52531309000000004;stroke-linecap:round;stroke-linejoin:round;stroke-miterlimit:4;stroke-opacity:1;stroke-dasharray:none;filter:url(#filter4011)"
     id="path3767-4"
     sodipodi:cx="7.3898306"
     sodipodi:cy="7.3220339"
     sodipodi:expansion="1"
     sodipodi:revolution="3"
     sodipodi:radius="6.3531065"
     sodipodi:argument="-20.297321"
     sodipodi:t0="0"
     d="M 7.3898306,7.3220339 C 7.4289214,7.005907 7.8352494,7.2187617 7.9152543,7.3870054 8.1320627,7.8429355 7.6829968,8.2936403 7.2598876,8.3728814 6.5030444,8.5146251 5.8750449,7.8396904 5.8135594,7.1271193 5.7233268,6.0813927 6.6498682,5.255148 7.6497167,5.2203389 8.9823574,5.1739439 10.012303,6.3602922 10.016949,7.6468915 10.022797,9.2659454 8.5731613,10.501831 7.0000015,10.474576 5.0946942,10.441567 3.6517129,8.7268585 3.7118644,6.8672333 3.7827509,4.6757292 5.7635692,3.0249729 7.9096027,3.118644 10.387283,3.226791 12.246251,5.4743741 12.118644,7.9067775 11.97365,10.670629 9.4588613,12.738104 6.7401154,12.576271 3.6900934,12.394719 1.4138979,9.612415 1.6101695,6.6073472 1.8280681,3.2711523 4.8781148,0.78607996 8.1694888,1.016949"
     transform="matrix(1.2640081,0,0,1.2640081,-0.74092308,-0.51939464)" />
  <path
     sodipodi:type="spiral"
     style="fill:none;stroke:#ffa500;stroke-width:1px;stroke-linecap:round;stroke-linejoin:round;stroke-opacity:1"
     id="path3767-3"
     sodipodi:cx="7.3898306"
     sodipodi:cy="7.3220339"
     sodipodi:expansion="1"
     sodipodi:revolution="3"
     sodipodi:radius="6.3531065"
     sodipodi:argument="-20.297321"
     sodipodi:t0="0"
     d="M 7.3898306,7.3220339 C 7.4289214,7.005907 7.8352494,7.2187617 7.9152543,7.3870054 8.1320627,7.8429355 7.6829968,8.2936403 7.2598876,8.3728814 6.5030444,8.5146251 5.8750449,7.8396904 5.8135594,7.1271193 5.7233268,6.0813927 6.6498682,5.255148 7.6497167,5.2203389 8.9823574,5.1739439 10.012303,6.3602922 10.016949,7.6468915 10.022797,9.2659454 8.5731613,10.501831 7.0000015,10.474576 5.0946942,10.441567 3.6517129,8.7268585 3.7118644,6.8672333 3.7827509,4.6757292 5.7635692,3.0249729 7.9096027,3.118644 10.387283,3.226791 12.246251,5.4743741 12.118644,7.9067775 11.97365,10.670629 9.4588613,12.738104 6.7401154,12.576271 3.6900934,12.394719 1.4138979,9.612415 1.6101695,6.6073472 1.8280681,3.2711523 4.8781148,0.78607996 8.1694888,1.016949"
     transform="matrix(1.2640081,0,0,1.2640081,-0.16465192,-0.58719122)" />
</svg>
