<?xml version="1.0" encoding="utf-8"?>
<!-- Generator: Adobe Illustrator 14.0.0, SVG Export Plug-In . SVG Version: 6.00 Build 43363)  -->
<!DOCTYPE svg PUBLIC "-//W3C//DTD SVG 1.1//EN" "http://www.w3.org/Graphics/SVG/1.1/DTD/svg11.dtd">
<svg version="1.1" id="Layer_1" xmlns="http://www.w3.org/2000/svg" xmlns:xlink="http://www.w3.org/1999/xlink" x="0px" y="0px"
	 width="64px" height="64px" viewBox="0 0 64 64" enable-background="new 0 0 64 64" xml:space="preserve">
<g enable-background="new    ">
	<path fill="#FFA500" d="M12.544,58.29c0.318,0.228,0.664,0.408,1.037,0.542l-0.477,0.914c-0.195-0.059-0.386-0.139-0.573-0.24
		c-0.041-0.021-0.328-0.21-0.862-0.568c-0.419,0.184-0.885,0.275-1.395,0.275c-0.985,0-1.757-0.29-2.315-0.87
		s-0.837-1.395-0.837-2.444c0-1.047,0.28-1.86,0.839-2.442c0.56-0.581,1.319-0.872,2.278-0.872c0.95,0,1.704,0.291,2.261,0.872
		c0.557,0.582,0.835,1.396,0.835,2.442c0,0.554-0.077,1.041-0.231,1.46C12.988,57.68,12.801,57.99,12.544,58.29z M11.504,57.56
		c0.166-0.195,0.291-0.431,0.374-0.708s0.125-0.595,0.125-0.953c0-0.74-0.163-1.294-0.49-1.659
		c-0.327-0.366-0.753-0.549-1.281-0.549s-0.956,0.184-1.283,0.551c-0.328,0.367-0.492,0.92-0.492,1.657
		c0,0.749,0.164,1.31,0.492,1.682c0.328,0.371,0.743,0.557,1.244,0.557c0.187,0,0.363-0.03,0.529-0.092
		c-0.262-0.172-0.529-0.306-0.8-0.402l0.363-0.738C10.709,57.05,11.116,57.269,11.504,57.56z"/>
	<path fill="#FFA500" d="M17.398,59.104v-0.695c-0.169,0.248-0.391,0.443-0.667,0.586c-0.275,0.143-0.566,0.214-0.872,0.214
		c-0.312,0-0.592-0.068-0.84-0.205c-0.248-0.137-0.427-0.329-0.538-0.577s-0.166-0.59-0.166-1.027V54.46h1.229v2.134
		c0,0.653,0.022,1.053,0.068,1.2c0.045,0.147,0.127,0.264,0.247,0.35s0.271,0.129,0.455,0.129c0.21,0,0.398-0.058,0.564-0.173
		c0.167-0.114,0.28-0.258,0.341-0.428c0.061-0.171,0.092-0.589,0.092-1.253V54.46h1.229v4.644H17.398z"/>
	<path fill="#FFA500" d="M19.812,53.83v-1.137h1.229v1.137H19.812z M19.812,59.104V54.46h1.229v4.644H19.812z"/>
	<path fill="#FFA500" d="M21.806,59.104v-0.958l1.741-1.998c0.286-0.326,0.497-0.558,0.634-0.695
		c-0.143,0.009-0.331,0.015-0.564,0.018l-1.64,0.009V54.46h3.839v0.87l-1.775,2.046l-0.625,0.678c0.341-0.02,0.552-0.03,0.634-0.03
		h1.902v1.08H21.806z"/>
</g>
<g enable-background="new    ">
	<path fill="#EEEEEE" d="M30.53,56.747l1.255,0.397c-0.192,0.699-0.512,1.22-0.959,1.559c-0.448,0.34-1.015,0.51-1.703,0.51
		c-0.852,0-1.551-0.291-2.099-0.872c-0.548-0.582-0.822-1.377-0.822-2.386c0-1.066,0.275-1.896,0.826-2.485
		c0.551-0.591,1.275-0.886,2.173-0.886c0.784,0,1.421,0.231,1.911,0.695c0.292,0.273,0.51,0.667,0.656,1.181l-1.281,0.306
		c-0.076-0.332-0.234-0.595-0.475-0.787c-0.24-0.192-0.533-0.288-0.876-0.288c-0.476,0-0.861,0.17-1.157,0.512
		c-0.296,0.341-0.444,0.894-0.444,1.657c0,0.811,0.146,1.388,0.437,1.731s0.671,0.516,1.137,0.516c0.344,0,0.64-0.109,0.888-0.328
		C30.244,57.56,30.422,57.216,30.53,56.747z"/>
	<path fill="#EEEEEE" d="M34.063,59.104h-1.229V54.46h1.142v0.66c0.195-0.312,0.371-0.518,0.527-0.616
		c0.155-0.1,0.333-0.149,0.531-0.149c0.279,0,0.549,0.077,0.809,0.232l-0.381,1.071c-0.206-0.135-0.399-0.201-0.577-0.201
		c-0.172,0-0.317,0.047-0.437,0.142c-0.12,0.095-0.214,0.267-0.282,0.514c-0.068,0.248-0.103,0.767-0.103,1.557V59.104z"/>
	<path fill="#EEEEEE" d="M39.061,57.626l1.225,0.205c-0.158,0.449-0.406,0.791-0.746,1.025s-0.765,0.352-1.274,0.352
		c-0.808,0-1.405-0.264-1.793-0.791c-0.306-0.423-0.459-0.956-0.459-1.601c0-0.77,0.201-1.372,0.604-1.808s0.911-0.654,1.526-0.654
		c0.69,0,1.235,0.229,1.635,0.685s0.591,1.155,0.573,2.097h-3.078c0.009,0.364,0.107,0.648,0.297,0.851s0.426,0.304,0.708,0.304
		c0.192,0,0.354-0.053,0.485-0.157C38.895,58.028,38.993,57.858,39.061,57.626z M39.131,56.384
		c-0.009-0.355-0.101-0.626-0.276-0.812c-0.175-0.185-0.388-0.277-0.638-0.277c-0.269,0-0.49,0.098-0.665,0.293
		s-0.261,0.461-0.258,0.796H39.131z"/>
	<path fill="#EEEEEE" d="M42.27,55.877l-1.114-0.201c0.125-0.449,0.341-0.781,0.646-0.997c0.307-0.216,0.761-0.324,1.364-0.324
		c0.549,0,0.956,0.065,1.225,0.195c0.269,0.129,0.457,0.294,0.566,0.494c0.109,0.199,0.164,0.565,0.164,1.1l-0.014,1.434
		c0,0.408,0.021,0.709,0.06,0.903c0.039,0.193,0.113,0.401,0.221,0.623h-1.216c-0.032-0.082-0.071-0.202-0.118-0.363
		c-0.021-0.072-0.034-0.12-0.043-0.144c-0.21,0.204-0.435,0.356-0.674,0.459c-0.239,0.102-0.494,0.152-0.766,0.152
		c-0.478,0-0.854-0.129-1.13-0.389s-0.413-0.588-0.413-0.983c0-0.263,0.063-0.497,0.188-0.702c0.126-0.206,0.302-0.363,0.527-0.473
		s0.552-0.204,0.978-0.286c0.574-0.107,0.972-0.208,1.193-0.302v-0.122c0-0.236-0.059-0.405-0.175-0.505
		c-0.116-0.101-0.337-0.151-0.66-0.151c-0.219,0-0.39,0.043-0.512,0.129S42.346,55.661,42.27,55.877z M43.914,56.873
		c-0.157,0.053-0.406,0.115-0.748,0.188c-0.341,0.073-0.563,0.145-0.669,0.214c-0.16,0.114-0.24,0.259-0.24,0.434
		c0,0.172,0.064,0.32,0.192,0.445c0.128,0.126,0.292,0.188,0.49,0.188c0.221,0,0.433-0.073,0.634-0.219
		c0.148-0.11,0.246-0.246,0.293-0.406c0.032-0.105,0.048-0.305,0.048-0.6V56.873z"/>
	<path fill="#EEEEEE" d="M48.462,54.46v0.979h-0.84v1.871c0,0.379,0.008,0.6,0.024,0.663c0.016,0.063,0.052,0.114,0.109,0.155
		c0.057,0.04,0.126,0.061,0.207,0.061c0.114,0,0.278-0.039,0.494-0.118l0.105,0.953c-0.286,0.123-0.609,0.184-0.971,0.184
		c-0.222,0-0.422-0.037-0.6-0.111s-0.308-0.17-0.391-0.288s-0.141-0.278-0.173-0.479c-0.026-0.143-0.04-0.431-0.04-0.865v-2.024
		h-0.563V54.46h0.563v-0.923l1.233-0.717v1.64H48.462z"/>
	<path fill="#EEEEEE" d="M49.03,56.716c0-0.408,0.101-0.803,0.302-1.185s0.486-0.674,0.854-0.875
		c0.369-0.201,0.781-0.302,1.235-0.302c0.703,0,1.278,0.229,1.728,0.685s0.674,1.033,0.674,1.729c0,0.702-0.228,1.285-0.681,1.747
		s-1.023,0.692-1.712,0.692c-0.426,0-0.831-0.096-1.218-0.288c-0.386-0.192-0.68-0.475-0.881-0.846
		C49.131,57.702,49.03,57.25,49.03,56.716z M50.29,56.781c0,0.461,0.109,0.813,0.328,1.059c0.218,0.245,0.487,0.367,0.809,0.367
		c0.32,0,0.59-0.122,0.807-0.367s0.326-0.601,0.326-1.067c0-0.454-0.109-0.804-0.326-1.049s-0.486-0.367-0.807-0.367
		c-0.321,0-0.591,0.122-0.809,0.367C50.399,55.969,50.29,56.321,50.29,56.781z"/>
	<path fill="#EEEEEE" d="M55.962,59.104h-1.229V54.46h1.142v0.66c0.195-0.312,0.371-0.518,0.527-0.616
		c0.155-0.1,0.333-0.149,0.531-0.149c0.279,0,0.549,0.077,0.809,0.232l-0.381,1.071c-0.206-0.135-0.399-0.201-0.577-0.201
		c-0.172,0-0.317,0.047-0.437,0.142c-0.12,0.095-0.214,0.267-0.282,0.514c-0.068,0.248-0.103,0.767-0.103,1.557V59.104z"/>
</g>
<rect x="16.287" y="9.201" fill="none" stroke="#FFA500" stroke-width="2" width="32.003" height="39.609"/>
<line fill="none" stroke="#FFA500" stroke-width="2" x1="21.152" y1="17.082" x2="43.014" y2="17.082"/>
<line fill="none" stroke="#FFA500" stroke-width="2" x1="21.152" y1="23.596" x2="43.014" y2="23.596"/>
<line fill="none" stroke="#FFA500" stroke-width="2" x1="21.152" y1="30.11" x2="43.014" y2="30.11"/>
<line fill="none" stroke="#FFA500" stroke-width="2" x1="21.152" y1="36.624" x2="43.014" y2="36.624"/>
<line fill="none" stroke="#FFA500" stroke-width="2" x1="46.205" y1="6.038" x2="57.443" y2="6.038"/>
<line fill="none" stroke="#FFA500" stroke-width="2" x1="51.824" y1="0.418" x2="51.824" y2="11.657"/>
</svg>
