<?xml version="1.0" encoding="utf-8"?>
<!-- Generator: Adobe Illustrator 14.0.0, SVG Export Plug-In . SVG Version: 6.00 Build 43363)  -->
<!DOCTYPE svg PUBLIC "-//W3C//DTD SVG 1.1//EN" "http://www.w3.org/Graphics/SVG/1.1/DTD/svg11.dtd">
<svg version="1.1" id="Layer_1" xmlns="http://www.w3.org/2000/svg" xmlns:xlink="http://www.w3.org/1999/xlink" x="0px" y="0px"
	 width="64px" height="64px" viewBox="0 0 64 64" enable-background="new 0 0 64 64" xml:space="preserve">
<polygon fill="#FFA500" stroke="#FFA500" points="45.426,61.125 19.183,61.125 8.447,13.41 56.162,13.41 "/>
<line fill="none" stroke="#2B2B2B" stroke-width="2" x1="19.825" y1="19.629" x2="23.971" y2="54.352"/>
<line fill="none" stroke="#2B2B2B" stroke-width="2" x1="32.305" y1="19.629" x2="32.305" y2="54.352"/>
<line fill="none" stroke="#2B2B2B" stroke-width="2" x1="44.908" y1="19.629" x2="40.555" y2="54.352"/>
<path fill="#FFA500" d="M58.176,11.752H6.247c0,0-0.519-2.747,3.057-4.716c3.576-1.969,41.514-1.555,44.571-0.207
	C56.931,8.176,58.176,11.752,58.176,11.752z"/>
<path fill="#FFA500" d="M37.505,4.445H27.108c0,0-0.104-1.221,0.612-2.097c0.716-0.875,8.312-0.691,8.922-0.092
	C37.255,2.855,37.505,4.445,37.505,4.445z"/>
</svg>
