<?xml version="1.0" encoding="UTF-8" standalone="no"?>
<!-- Generator: Adobe Illustrator 14.0.0, SVG Export Plug-In . SVG Version: 6.00 Build 43363)  -->

<svg
   xmlns:dc="http://purl.org/dc/elements/1.1/"
   xmlns:cc="http://creativecommons.org/ns#"
   xmlns:rdf="http://www.w3.org/1999/02/22-rdf-syntax-ns#"
   xmlns:svg="http://www.w3.org/2000/svg"
   xmlns="http://www.w3.org/2000/svg"
   xmlns:sodipodi="http://sodipodi.sourceforge.net/DTD/sodipodi-0.dtd"
   xmlns:inkscape="http://www.inkscape.org/namespaces/inkscape"
   version="1.1"
   id="Layer_1"
   x="0px"
   y="0px"
   width="64px"
   height="64px"
   viewBox="0 0 64 64"
   enable-background="new 0 0 64 64"
   xml:space="preserve"
   inkscape:version="0.48.4 r9939"
   sodipodi:docname="quizCreator.svg"><metadata
     id="metadata13105"><rdf:RDF><cc:Work
         rdf:about=""><dc:format>image/svg+xml</dc:format><dc:type
           rdf:resource="http://purl.org/dc/dcmitype/StillImage" /><dc:title></dc:title></cc:Work></rdf:RDF></metadata><defs
     id="defs13103" /><sodipodi:namedview
     pagecolor="#ffffff"
     bordercolor="#666666"
     borderopacity="1"
     objecttolerance="10"
     gridtolerance="10"
     guidetolerance="10"
     inkscape:pageopacity="0"
     inkscape:pageshadow="2"
     inkscape:window-width="1366"
     inkscape:window-height="722"
     id="namedview13101"
     showgrid="false"
     inkscape:zoom="3.6875"
     inkscape:cx="55.186441"
     inkscape:cy="29.830508"
     inkscape:window-x="0"
     inkscape:window-y="22"
     inkscape:window-maximized="1"
     inkscape:current-layer="Layer_1" /><rect
     x="16.287"
     y="9.201"
     fill="none"
     stroke="#FFA500"
     stroke-width="2"
     width="32.003"
     height="39.609"
     id="rect13087" /><path
     style="font-size:medium;font-style:normal;font-variant:normal;font-weight:normal;font-stretch:normal;text-indent:0;text-align:start;text-decoration:none;line-height:normal;letter-spacing:normal;word-spacing:normal;text-transform:none;direction:ltr;block-progression:tb;writing-mode:lr-tb;text-anchor:start;baseline-shift:baseline;color:#000000;fill:#ffa500;fill-opacity:1;stroke:#ffa500;stroke-width:0.29352096;stroke-miterlimit:4;stroke-opacity:1;stroke-dasharray:none;marker:none;visibility:visible;display:inline;overflow:visible;enable-background:accumulate;font-family:Sans;-inkscape-font-specification:Sans"
     d="m 22.821447,31.635589 c -2.00721,3.303326 -0.941903,7.662141 2.361236,9.669238 3.303139,2.007097 7.6642,0.945523 9.671411,-2.357803 1.638155,-2.69596 1.228635,-6.090087 -0.774184,-8.342068 l 3.242773,-5.33673 0.903037,0.548715 0.369993,0.22482 0.224835,-0.370018 1.127915,-1.856242 0.225756,-0.371534 -0.369994,-0.22482 -0.903036,-0.548715 0.386771,-0.63652 1.644592,0.999308 0.371562,0.225774 0.224835,-0.370019 1.321273,-2.174457 0.225756,-0.371534 -0.371562,-0.225774 -1.644592,-0.999308 0.418248,-0.688323 0.225756,-0.371533 -0.371563,-0.225774 -2.704406,-1.643287 -0.371561,-0.225773 -0.225756,0.371534 -7.389603,12.161289 c -2.93705,-0.770402 -6.170556,0.425851 -7.819492,3.139554 z m 0.741556,0.450594 c 1.500545,-2.469491 4.504075,-3.506998 7.148627,-2.671386 l 0.32413,0.102464 0.177214,-0.291646 7.334287,-12.070255 1.96285,1.192693 -0.419168,0.689838 -0.225756,0.371533 0.371561,0.225773 1.644593,0.999309 -0.86976,1.43139 -1.644593,-0.999309 -0.371561,-0.225772 -0.225757,0.371533 -0.837362,1.378073 -0.224835,0.370017 0.371561,0.225773 0.903037,0.548715 -0.677323,1.114692 -0.903037,-0.548716 -0.371561,-0.225773 -0.225756,0.371534 -3.635288,5.982701 -0.175263,0.288436 0.236803,0.242649 c 1.927693,1.964001 2.37128,5.081318 0.880325,7.535027 -1.760326,2.89702 -5.580486,3.828237 -8.477695,2.067797 -2.89721,-1.76044 -3.830598,-5.580071 -2.070272,-8.477091 z m 2.227803,1.353687 c -1.0272,1.690493 -0.495263,3.869952 1.195218,4.897145 1.69048,1.027191 3.869944,0.495269 4.897143,-1.195225 1.027199,-1.690491 0.495263,-3.869953 -1.195217,-4.897144 -1.690482,-1.027193 -3.869945,-0.495268 -4.897144,1.195224 z m 0.743125,0.451547 c 0.789848,-1.299877 2.402605,-1.693444 3.702452,-0.903614 1.299847,0.78983 1.695076,2.403516 0.905228,3.703393 -0.789849,1.299878 -2.405147,1.694096 -3.704994,0.904266 -1.299848,-0.789831 -1.692535,-2.404167 -0.902686,-3.704045 z"
     id="path2989"
     inkscape:connector-curvature="0" /><g
     transform="matrix(0.11936848,0,0,0.11936848,3.4781879,-32.82768)"
     style="font-size:40px;font-style:normal;font-weight:normal;line-height:125%;letter-spacing:0px;word-spacing:0px;fill:#000000;fill-opacity:1;stroke:none;font-family:Sans"
     id="flowRoot2983"><path
       d="m 149.18701,770.58698 0,-53.24707 10.83985,0 0,44.20166 26.95312,0 0,9.04541 -37.79297,0"
       style="font-size:75px;font-variant:normal;font-weight:bold;font-stretch:normal;fill:#ffa500;font-family:Arial;-inkscape-font-specification:Arial Bold"
       id="path5256"
       inkscape:connector-curvature="0" /><path
       d="m 192.29004,750.59187 c 0,-3.41795 0.84228,-6.72605 2.52685,-9.92432 1.68457,-3.19821 4.06494,-5.63961 7.14112,-7.32422 3.10057,-1.68453 6.55515,-2.52682 10.36377,-2.52686 5.88376,4e-5 10.70553,1.91655 14.46533,5.74952 3.75972,3.80862 5.6396,8.63039 5.63965,14.46533 -5e-5,5.8838 -1.90434,10.76661 -5.71289,14.64844 -3.78422,3.85742 -8.55716,5.78613 -14.31885,5.78613 -3.56447,0 -6.97023,-0.80567 -10.21729,-2.41699 -3.22266,-1.61133 -5.67627,-3.96728 -7.36084,-7.06787 -1.68457,-3.12499 -2.52685,-6.92138 -2.52685,-11.38916 m 10.54687,0.54931 c -10e-6,3.85744 0.91552,6.81154 2.74659,8.86231 1.83103,2.05079 4.08933,3.07618 6.7749,3.07617 2.68552,10e-6 4.93161,-1.02538 6.73828,-3.07617 1.83102,-2.05077 2.74655,-5.02928 2.74658,-8.93555 -3e-5,-3.80857 -0.91556,-6.73826 -2.74658,-8.78906 -1.80667,-2.05075 -4.05276,-3.07614 -6.73828,-3.07617 -2.68557,3e-5 -4.94387,1.02542 -6.7749,3.07617 -1.83107,2.0508 -2.7466,5.0049 -2.74659,8.8623"
       style="font-size:75px;font-variant:normal;font-weight:bold;font-stretch:normal;fill:#ffa500;font-family:Arial;-inkscape-font-specification:Arial Bold"
       id="path5258"
       inkscape:connector-curvature="0" /><path
       d="m 239.56787,773.15046 11.75537,1.42822 c 0.1953,1.36718 0.64696,2.30712 1.35498,2.81983 0.97655,0.73241 2.51463,1.09862 4.61426,1.09863 2.68552,-10e-6 4.69968,-0.40284 6.04248,-1.2085 0.90329,-0.53711 1.58689,-1.40381 2.05078,-2.6001 0.31735,-0.85449 0.47605,-2.4292 0.47608,-4.72412 l 0,-5.67627 c -3.0762,4.19923 -6.95804,6.29883 -11.64551,6.29883 -5.22462,0 -9.3628,-2.20947 -12.41455,-6.62842 -2.39258,-3.4912 -3.58887,-7.8369 -3.58887,-13.0371 0,-6.51853 1.5625,-11.499 4.6875,-14.94141 3.1494,-3.44235 7.05565,-5.16354 11.71875,-5.16358 4.80955,4e-5 8.77683,2.11186 11.90186,6.33545 l 0,-5.45654 9.63134,0 0,34.8999 c -4e-5,4.58985 -0.37845,8.02002 -1.13525,10.29053 -0.75688,2.2705 -1.81889,4.05272 -3.18604,5.34668 -1.36722,1.29393 -3.19827,2.30712 -5.49316,3.03955 -2.27054,0.73241 -5.15139,1.09862 -8.64258,1.09863 -6.59181,-10e-6 -11.2671,-1.13526 -14.02588,-3.40576 -2.75879,-2.2461 -4.13818,-5.10254 -4.13818,-8.56933 0,-0.3418 0.0122,-0.75684 0.0366,-1.24512 m 9.1919,-22.81494 c -2e-5,4.12599 0.79344,7.15333 2.38037,9.08203 1.61131,1.90431 3.58884,2.85645 5.93261,2.85644 2.51463,10e-6 4.63865,-0.97655 6.37207,-2.92968 1.73337,-1.97753 2.60007,-4.89501 2.6001,-8.75244 -3e-5,-4.0283 -0.83011,-7.01902 -2.49023,-8.97217 -1.66019,-1.9531 -3.75979,-2.92966 -6.29883,-2.92969 -2.46584,3e-5 -4.50441,0.96439 -6.11572,2.89307 -1.58693,1.90432 -2.38039,4.8218 -2.38037,8.75244"
       style="font-size:75px;font-variant:normal;font-weight:bold;font-stretch:normal;fill:#ffa500;font-family:Arial;-inkscape-font-specification:Arial Bold"
       id="path5260"
       inkscape:connector-curvature="0" /><path
       d="m 286.36963,726.42194 0,-9.52148 10.29053,0 0,9.52148 -10.29053,0 m 0,44.16504 0,-38.8916 10.29053,0 0,38.8916 -10.29053,0"
       style="font-size:75px;font-variant:normal;font-weight:bold;font-stretch:normal;fill:#ffa500;font-family:Arial;-inkscape-font-specification:Arial Bold"
       id="path5262"
       inkscape:connector-curvature="0" /><path
       d="m 342.54639,770.58698 -10.29053,0 0,-19.84863 c -3e-5,-4.1992 -0.21976,-6.90915 -0.65918,-8.12988 -0.43948,-1.24509 -1.1597,-2.20945 -2.16064,-2.89307 -0.97659,-0.68356 -2.16067,-1.02536 -3.55225,-1.02539 -1.78225,3e-5 -3.38137,0.48831 -4.79736,1.46484 -1.41604,0.9766 -2.3926,2.27054 -2.92969,3.88184 -0.51271,1.61135 -0.76906,4.58987 -0.76904,8.93555 l 0,17.61474 -10.29053,0 0,-38.8916 9.5581,0 0,5.71289 c 3.39354,-4.39449 7.666,-6.59176 12.81739,-6.5918 2.27047,4e-5 4.34567,0.41508 6.22558,1.24512 1.87985,0.8057 3.29586,1.8433 4.24805,3.11279 0.97652,1.26957 1.64791,2.71 2.01416,4.32129 0.39058,1.61136 0.5859,3.91849 0.58594,6.92139 l 0,24.16992"
       style="font-size:75px;font-variant:normal;font-weight:bold;font-stretch:normal;fill:#ffa500;font-family:Arial;-inkscape-font-specification:Arial Bold"
       id="path5264"
       inkscape:connector-curvature="0" /></g></svg>