<?xml version="1.0" encoding="UTF-8" standalone="no"?>
<!-- Created with Inkscape (http://www.inkscape.org/) -->

<svg
   xmlns:dc="http://purl.org/dc/elements/1.1/"
   xmlns:cc="http://creativecommons.org/ns#"
   xmlns:rdf="http://www.w3.org/1999/02/22-rdf-syntax-ns#"
   xmlns:svg="http://www.w3.org/2000/svg"
   xmlns="http://www.w3.org/2000/svg"
   xmlns:sodipodi="http://sodipodi.sourceforge.net/DTD/sodipodi-0.dtd"
   xmlns:inkscape="http://www.inkscape.org/namespaces/inkscape"
   width="638.10089"
   height="605.71429"
   id="svg2"
   version="1.1"
   inkscape:version="0.48.4 r9939"
   sodipodi:docname="Neues Dokument 1">
  <defs
     id="defs4" />
  <sodipodi:namedview
     id="base"
     pagecolor="#ffffff"
     bordercolor="#666666"
     borderopacity="1.0"
     inkscape:pageopacity="0.0"
     inkscape:pageshadow="2"
     inkscape:zoom="0.49497475"
     inkscape:cx="103.3206"
     inkscape:cy="94.090409"
     inkscape:document-units="px"
     inkscape:current-layer="layer1"
     showgrid="false"
     fit-margin-top="0"
     fit-margin-left="0"
     fit-margin-right="0"
     fit-margin-bottom="0"
     inkscape:window-width="1920"
     inkscape:window-height="1025"
     inkscape:window-x="0"
     inkscape:window-y="0"
     inkscape:window-maximized="1" />
  <metadata
     id="metadata7">
    <rdf:RDF>
      <cc:Work
         rdf:about="">
        <dc:format>image/svg+xml</dc:format>
        <dc:type
           rdf:resource="http://purl.org/dc/dcmitype/StillImage" />
        <dc:title></dc:title>
      </cc:Work>
    </rdf:RDF>
  </metadata>
  <g
     inkscape:label="Ebene 1"
     inkscape:groupmode="layer"
     id="layer1"
     transform="translate(-54.736429,-202.59409)">
    <path
       sodipodi:type="arc"
       style="fill:none;stroke:#ffa500;stroke-width:40;stroke-linecap:butt;stroke-linejoin:miter;stroke-miterlimit:4;stroke-opacity:1;stroke-dasharray:none"
       id="path2985"
       sodipodi:cx="114.28571"
       sodipodi:cy="315.21933"
       sodipodi:rx="272.85715"
       sodipodi:ry="272.85715"
       d="m 387.14286,315.21933 c 0,150.69484 -122.16231,272.85715 -272.85715,272.85715 -150.694838,0 -272.85714,-122.16231 -272.85714,-272.85715 0,-150.69484 122.162302,-272.857147 272.85714,-272.857147 150.69484,0 272.85715,122.162307 272.85715,272.857147 z"
       transform="translate(260,190)" />
    <path
       transform="translate(260,190)"
       d="m 387.14286,315.21933 c 0,150.69484 -122.16231,272.85715 -272.85715,272.85715 -150.694838,0 -272.85714,-122.16231 -272.85714,-272.85715 0,-150.69484 122.162302,-272.857147 272.85714,-272.857147 150.69484,0 272.85715,122.162307 272.85715,272.857147 z"
       sodipodi:ry="272.85715"
       sodipodi:rx="272.85715"
       sodipodi:cy="315.21933"
       sodipodi:cx="114.28571"
       id="path2987"
       style="fill:#000000;fill-opacity:0;fill-rule:evenodd;stroke:none"
       sodipodi:type="arc" />
    <path
       style="fill:none;stroke:#ff5501;stroke-width:50;stroke-linecap:butt;stroke-linejoin:miter;stroke-miterlimit:4;stroke-opacity:1;stroke-dasharray:none"
       d="m 133.34014,636.17933 c 0,0 -104.045716,98.99495 -22.22336,134.35029 81.82236,35.35534 565.68543,-405.07117 556.59406,-483.86307 -9.09138,-78.7919 -118.18785,-1.01015 -118.18785,-1.01015 l -10.10153,1.01015"
       id="path3787"
       inkscape:connector-curvature="0" />
    <path
       sodipodi:type="arc"
       style="fill:none;stroke:#ffa500;stroke-width:60;stroke-linecap:butt;stroke-linejoin:miter;stroke-miterlimit:4;stroke-opacity:1;stroke-dasharray:none"
       id="path2985-0"
       sodipodi:cx="114.28571"
       sodipodi:cy="315.21933"
       sodipodi:rx="272.85715"
       sodipodi:ry="272.85715"
       d="m 387.14286,315.21933 c 0,150.69484 -122.16231,272.85715 -272.85715,272.85715 -150.694838,0 -272.85714,-122.16231 -272.85714,-272.85715 0,-150.69484 122.162302,-272.857147 272.85714,-272.857147 150.69484,0 272.85715,122.162307 272.85715,272.857147 z"
       transform="translate(259.74556,190.23191)" />
    <path
       style="fill:none;stroke:#ff5501;stroke-width:50;stroke-linecap:butt;stroke-linejoin:miter;stroke-miterlimit:4;stroke-opacity:1;stroke-dasharray:none"
       d="M 111.08636,770.4752 C 192.90871,805.83054 676.77178,365.40403 667.68041,286.61213"
       id="path3787-6"
       inkscape:connector-curvature="0"
       sodipodi:nodetypes="cc" />
  </g>
</svg>
