<?xml version="1.0" encoding="utf-8"?>
<!-- Generator: Adobe Illustrator 14.0.0, SVG Export Plug-In . SVG Version: 6.00 Build 43363)  -->
<!DOCTYPE svg PUBLIC "-//W3C//DTD SVG 1.1//EN" "http://www.w3.org/Graphics/SVG/1.1/DTD/svg11.dtd">
<svg version="1.1" id="Layer_1" xmlns="http://www.w3.org/2000/svg" xmlns:xlink="http://www.w3.org/1999/xlink" x="0px" y="0px"
	 width="64px" height="64px" viewBox="0 0 64 64" enable-background="new 0 0 64 64" xml:space="preserve">
<g enable-background="new    ">
	<path fill="#FF9F00" d="M7.192,52.661h1.304v3.498c0,0.555,0.016,0.914,0.048,1.079c0.056,0.264,0.188,0.477,0.398,0.637
		s0.497,0.239,0.861,0.239c0.37,0,0.649-0.075,0.837-0.227s0.301-0.337,0.339-0.557c0.038-0.221,0.057-0.586,0.057-1.098v-3.572
		h1.304v3.392c0,0.775-0.035,1.323-0.106,1.644c-0.07,0.32-0.2,0.59-0.39,0.811s-0.443,0.396-0.76,0.526
		c-0.317,0.131-0.731,0.196-1.243,0.196c-0.617,0-1.084-0.071-1.403-0.214s-0.57-0.327-0.755-0.555s-0.307-0.467-0.366-0.716
		c-0.085-0.37-0.128-0.917-0.128-1.64V52.661z"/>
	<path fill="#FF9F00" d="M13.673,54.44h1.154v0.688c0.15-0.235,0.353-0.426,0.608-0.572c0.255-0.147,0.539-0.221,0.85-0.221
		c0.543,0,1.004,0.213,1.383,0.639s0.568,1.02,0.568,1.78c0,0.781-0.191,1.388-0.573,1.821s-0.844,0.649-1.388,0.649
		c-0.258,0-0.493-0.051-0.703-0.154c-0.21-0.103-0.431-0.278-0.663-0.528v2.356h-1.238V54.44z M14.897,56.7
		c0,0.526,0.104,0.914,0.313,1.166c0.208,0.251,0.462,0.376,0.762,0.376c0.288,0,0.527-0.115,0.718-0.346s0.287-0.608,0.287-1.134
		c0-0.491-0.099-0.855-0.295-1.093c-0.197-0.238-0.44-0.357-0.731-0.357c-0.302,0-0.553,0.117-0.753,0.351
		S14.897,56.242,14.897,56.7z"/>
	<path fill="#FF9F00" d="M19.219,59.119v-6.458h1.238v6.458H19.219z"/>
	<path fill="#FF9F00" d="M21.439,56.714c0-0.411,0.101-0.809,0.304-1.193s0.49-0.679,0.861-0.882
		c0.372-0.202,0.787-0.304,1.245-0.304c0.708,0,1.288,0.229,1.74,0.689c0.452,0.46,0.678,1.04,0.678,1.742
		c0,0.708-0.229,1.295-0.685,1.76c-0.457,0.466-1.032,0.698-1.725,0.698c-0.429,0-0.838-0.097-1.227-0.29
		c-0.389-0.194-0.685-0.479-0.888-0.853C21.541,57.707,21.439,57.251,21.439,56.714z M22.708,56.78c0,0.464,0.11,0.819,0.331,1.065
		c0.22,0.247,0.492,0.37,0.815,0.37c0.323,0,0.594-0.123,0.813-0.37c0.219-0.246,0.329-0.604,0.329-1.074
		c0-0.459-0.11-0.811-0.329-1.058s-0.49-0.37-0.813-0.37c-0.323,0-0.595,0.123-0.815,0.37S22.708,56.316,22.708,56.78z"/>
	<path fill="#FF9F00" d="M28.162,55.868l-1.124-0.203c0.126-0.452,0.344-0.787,0.652-1.004c0.309-0.218,0.767-0.326,1.375-0.326
		c0.552,0,0.963,0.065,1.234,0.196c0.27,0.131,0.46,0.297,0.57,0.498c0.11,0.201,0.165,0.57,0.165,1.107l-0.013,1.445
		c0,0.411,0.02,0.714,0.06,0.909s0.114,0.404,0.223,0.628h-1.225c-0.032-0.082-0.072-0.204-0.119-0.365
		c-0.021-0.074-0.035-0.122-0.044-0.146c-0.211,0.205-0.438,0.359-0.679,0.462c-0.241,0.104-0.498,0.154-0.771,0.154
		c-0.481,0-0.861-0.131-1.139-0.392c-0.277-0.262-0.416-0.592-0.416-0.991c0-0.265,0.063-0.5,0.189-0.707
		c0.126-0.207,0.303-0.366,0.531-0.476c0.228-0.11,0.556-0.207,0.984-0.289c0.579-0.108,0.979-0.21,1.203-0.304v-0.123
		c0-0.238-0.059-0.408-0.176-0.509c-0.117-0.102-0.339-0.152-0.665-0.152c-0.22,0-0.392,0.043-0.516,0.13
		C28.338,55.499,28.238,55.65,28.162,55.868z M29.818,56.872c-0.159,0.054-0.41,0.116-0.753,0.189
		c-0.343,0.074-0.568,0.146-0.674,0.216c-0.162,0.115-0.242,0.261-0.242,0.437c0,0.173,0.064,0.323,0.194,0.449
		c0.129,0.126,0.293,0.189,0.493,0.189c0.223,0,0.436-0.073,0.639-0.22c0.15-0.112,0.249-0.249,0.295-0.41
		c0.032-0.105,0.048-0.307,0.048-0.604V56.872z"/>
	<path fill="#FF9F00" d="M36.545,59.119h-1.15v-0.688c-0.19,0.268-0.416,0.467-0.676,0.598c-0.26,0.13-0.522,0.195-0.786,0.195
		c-0.538,0-0.998-0.216-1.381-0.649c-0.384-0.434-0.575-1.037-0.575-1.813c0-0.793,0.187-1.396,0.56-1.809
		c0.373-0.413,0.844-0.619,1.414-0.619c0.522,0,0.975,0.218,1.356,0.652v-2.326h1.238V59.119z M33.241,56.679
		c0,0.499,0.068,0.86,0.207,1.084c0.199,0.322,0.479,0.484,0.837,0.484c0.284,0,0.526-0.121,0.727-0.363
		c0.199-0.242,0.3-0.604,0.3-1.086c0-0.538-0.097-0.925-0.291-1.161c-0.193-0.236-0.442-0.354-0.744-0.354
		c-0.294,0-0.54,0.116-0.738,0.351C33.34,55.866,33.241,56.215,33.241,56.679z"/>
</g>
<g enable-background="new    ">
	<path fill="#EEEEEE" d="M39.083,59.119l2.207-3.37l-2-3.088h1.524l1.295,2.075l1.269-2.075h1.511l-2.009,3.137l2.207,3.321h-1.572
		l-1.432-2.233l-1.437,2.233H39.083z"/>
	<path fill="#EEEEEE" d="M45.739,59.119v-6.458h1.951l1.172,4.405l1.159-4.405h1.956v6.458h-1.212v-5.084l-1.282,5.084h-1.255
		l-1.277-5.084v5.084H45.739z"/>
	<path fill="#EEEEEE" d="M53.308,59.119v-6.405h1.304v5.317h3.243v1.088H53.308z"/>
</g>
<rect x="16.287" y="9.201" fill="none" stroke="#FFA500" stroke-width="2" width="32.003" height="39.609"/>
<line fill="none" stroke="#FFA500" stroke-width="2" x1="21.152" y1="17.082" x2="43.014" y2="17.082"/>
<line fill="none" stroke="#FFA500" stroke-width="2" x1="21.152" y1="23.596" x2="43.014" y2="23.596"/>
<line fill="none" stroke="#FFA500" stroke-width="2" x1="21.152" y1="30.11" x2="43.014" y2="30.11"/>
<line fill="none" stroke="#FFA500" stroke-width="2" x1="21.152" y1="36.624" x2="43.014" y2="36.624"/>
<line fill="none" stroke="#FFA500" stroke-width="3" x1="51.824" y1="3.943" x2="51.824" y2="15.182"/>
<polygon fill="#FFA500" stroke="#FFA500" stroke-width="2" points="47.646,6.292 51.824,2.113 56.002,6.292 "/>
</svg>
